<?xml version="1.0" encoding="utf-8"?>
<!-- Generator: Adobe Illustrator 21.0.0, SVG Export Plug-In . SVG Version: 6.00 Build 0)  -->
<svg version="1.1" id="Layer_1" xmlns="http://www.w3.org/2000/svg" xmlns:xlink="http://www.w3.org/1999/xlink" x="0px" y="0px"
	 viewBox="0 0 50 50" style="enable-background:new 0 0 50 50;" xml:space="preserve">
<style type="text/css">
	.st0{fill:#999999;}
</style>
<g>
	<g>
		<g>
			<path class="st0" d="M40.3,0.5H9.7c-5.1,0-9.2,4.1-9.2,9.2v30.6c0,5.1,4.1,9.2,9.2,9.2h30.6c5.1,0,9.2-4.1,9.2-9.2V9.7
				C49.5,4.6,45.4,0.5,40.3,0.5z M37.2,19.5l0,0.8c0,8-6.1,17.2-17.2,17.2c-3.4,0-6.6-1-9.2-2.7c0.5,0.1,1,0.1,1.4,0.1
				c2.8,0,5.4-1,7.5-2.6c-2.6,0-4.9-1.8-5.6-4.2c0.4,0.1,0.7,0.1,1.1,0.1c0.6,0,1.1-0.1,1.6-0.2C14.1,27.4,12,25,12,22V22
				c0.8,0.5,1.7,0.7,2.7,0.8c-1.6-1.1-2.7-2.9-2.7-5c0-1.1,0.3-2.1,0.8-3c3,3.7,7.4,6.1,12.4,6.3c-0.1-0.4-0.2-0.9-0.2-1.4
				c0-3.3,2.7-6,6-6c1.7,0,3.3,0.7,4.4,1.9c1.4-0.3,2.7-0.8,3.8-1.5c-0.5,1.4-1.4,2.6-2.7,3.3c1.2-0.1,2.4-0.5,3.5-0.9
				C39.4,17.6,38.4,18.7,37.2,19.5z"/>
		</g>
	</g>
</g>
</svg>
