<?xml version="1.0" encoding="utf-8"?>
<!-- Generator: Adobe Illustrator 21.0.0, SVG Export Plug-In . SVG Version: 6.00 Build 0)  -->
<svg version="1.1" id="Layer_1" xmlns="http://www.w3.org/2000/svg" xmlns:xlink="http://www.w3.org/1999/xlink" x="0px" y="0px"
	 viewBox="0 0 50 50" style="enable-background:new 0 0 50 50;" xml:space="preserve">
<style type="text/css">
	.st0{fill:#999999;}
</style>
<g>
	<path class="st0" d="M26.9,22.6L26.9,22.6C26.8,22.6,26.8,22.6,26.9,22.6L26.9,22.6z"/>
	<path class="st0" d="M40.3,0.5H9.7c-5.1,0-9.2,4.1-9.2,9.2v30.6c0,5.1,4.1,9.2,9.2,9.2h30.6c5.1,0,9.2-4.1,9.2-9.2V9.7
		C49.5,4.6,45.4,0.5,40.3,0.5z M15.4,41.5H8V19.4h7.4V41.5z M11.7,16.4L11.7,16.4c-2.5,0-4.1-1.7-4.1-3.8c0-2.2,1.7-3.8,4.2-3.8
		c2.5,0,4.1,1.7,4.1,3.8C15.8,14.7,14.2,16.4,11.7,16.4z M42,41.5h-7.4V29.7c0-3-1.1-5-3.7-5c-2,0-3.3,1.4-3.8,2.7
		c-0.2,0.5-0.2,1.1-0.2,1.8v12.4h-7.4c0,0,0.1-20,0-22.1h7.4v3.1c1-1.5,2.7-3.7,6.7-3.7c4.9,0,8.5,3.2,8.5,10V41.5z"/>
</g>
</svg>
