<?xml version="1.0" encoding="utf-8"?>
<!-- Generator: Adobe Illustrator 21.1.0, SVG Export Plug-In . SVG Version: 6.00 Build 0)  -->
<svg version="1.1" id="Layer_1" xmlns="http://www.w3.org/2000/svg" xmlns:xlink="http://www.w3.org/1999/xlink" x="0px" y="0px"
	 viewBox="0 0 30 20" style="enable-background:new 0 0 30 20;" xml:space="preserve">
<style type="text/css">
	.st0{fill:#E5172B;}
	.st1{fill:#FFED83;}
</style>
<rect class="st0" width="30" height="20"/>
<g>
	<path class="st1" d="M20,9.2l-2.2,2.2l0.5,3.1c0,0,0,0.1,0,0.1c0,0.2-0.1,0.3-0.3,0.3c-0.1,0-0.2,0-0.2-0.1L15,13.4l-2.8,1.5
		c-0.1,0-0.2,0.1-0.2,0.1c-0.2,0-0.3-0.1-0.3-0.3c0,0,0-0.1,0-0.1l0.5-3.1L10,9.2C10,9.1,9.9,9,9.9,8.9c0-0.2,0.2-0.3,0.3-0.3
		l3.1-0.4l1.4-2.8c0.1-0.1,0.2-0.3,0.3-0.3s0.2,0.1,0.3,0.3l1.4,2.8l3.1,0.4c0.1,0,0.3,0.1,0.3,0.3C20.1,9,20,9.1,20,9.2z"/>
</g>
</svg>
