<?xml version="1.0" encoding="utf-8"?>
<!-- Generator: Adobe Illustrator 21.0.0, SVG Export Plug-In . SVG Version: 6.00 Build 0)  -->
<svg version="1.1" id="Layer_1" xmlns="http://www.w3.org/2000/svg" xmlns:xlink="http://www.w3.org/1999/xlink" x="0px" y="0px"
	 viewBox="0 0 50 50" style="enable-background:new 0 0 50 50;" xml:space="preserve">
<style type="text/css">
	.st0{fill:#999999;}
</style>
<g>
	<g>
		<path class="st0" d="M47,3c-1.8-1.8-4-2.7-6.5-2.7H9.6C7,0.3,4.9,1.2,3,3C1.2,4.9,0.3,7,0.3,9.6v30.8C0.3,43,1.2,45.1,3,47
			c1.8,1.8,4,2.7,6.5,2.7h30.8c2.5,0,4.7-0.9,6.5-2.7c1.8-1.8,2.7-4,2.7-6.5V9.6C49.7,7,48.8,4.9,47,3z M29.5,7.5h2.2v8.7
			c0,0.5,0,0.8,0,0.8c0,0.3,0.2,0.5,0.5,0.5c0.4,0,0.9-0.3,1.3-1V7.5h2.2v11.9h-2.2h0v-1.3c-0.9,1-1.7,1.4-2.5,1.4
			c-0.7,0-1.1-0.3-1.4-0.9c-0.1-0.4-0.2-1-0.2-1.8V7.5L29.5,7.5z M21.3,11.3c0-1.2,0.2-2.2,0.7-2.8c0.6-0.8,1.4-1.2,2.5-1.2
			c1,0,1.9,0.4,2.5,1.2c0.4,0.6,0.7,1.6,0.7,2.8v4.2c0,1.3-0.2,2.2-0.7,2.8c-0.6,0.8-1.5,1.2-2.5,1.2c-1.1,0-1.9-0.4-2.5-1.2
			c-0.4-0.6-0.7-1.6-0.7-2.8V11.3z M15.6,3.4l1.7,6.3l1.6-6.3h2.4l-2.9,9.5h0v6.5H16v-6.5c-0.2-1.2-0.7-2.9-1.5-5.1
			c-0.5-1.5-0.7-2.2-0.7-2.2l-0.8-2.2L15.6,3.4L15.6,3.4z M42,42.2c-0.2,0.9-0.7,1.7-1.4,2.3c-0.7,0.6-1.5,1-2.4,1.1
			c-2.9,0.3-7.3,0.5-13.2,0.5c-5.9,0-10.3-0.2-13.2-0.5c-0.9-0.1-1.7-0.5-2.4-1.1c-0.7-0.6-1.2-1.4-1.4-2.3
			c-0.4-1.8-0.6-4.6-0.6-8.4c0-3.7,0.2-6.5,0.6-8.4c0.2-0.9,0.7-1.7,1.4-2.4c0.7-0.6,1.5-1,2.5-1.1c2.9-0.3,7.3-0.5,13.2-0.5
			c5.9,0,10.3,0.2,13.2,0.5c0.9,0.1,1.7,0.5,2.4,1.1c0.7,0.6,1.2,1.4,1.4,2.4c0.4,1.8,0.6,4.6,0.6,8.4C42.7,37.6,42.5,40.4,42,42.2z
			"/>
		<polygon class="st0" points="10,27.9 12.5,27.9 12.5,41.4 14.9,41.4 14.9,27.9 17.4,27.9 17.4,25.6 10,25.6 		"/>
		<path class="st0" d="M21.7,38.7c-0.5,0.7-0.9,1-1.3,1c-0.3,0-0.5-0.2-0.5-0.5c0,0,0-0.3,0-0.8v-8.7h-2.1V39c0,0.8,0.1,1.4,0.2,1.7
			c0.2,0.6,0.6,0.9,1.3,0.9c0.8,0,1.6-0.5,2.4-1.4v1.3h2.2V29.7h-2.2L21.7,38.7L21.7,38.7z"/>
		<path class="st0" d="M30,29.5c-0.8,0-1.5,0.4-2.2,1.3v-5.2h-2.2v15.8h2.2v-1.2c0.7,0.9,1.4,1.3,2.2,1.3c0.9,0,1.4-0.4,1.7-1.3
			c0.2-0.4,0.2-1.2,0.2-2.3v-4.7c0-1.1-0.1-1.9-0.2-2.4C31.5,29.9,30.9,29.5,30,29.5z M29.9,38.1c0,1-0.3,1.6-0.9,1.6
			c-0.4,0-0.7-0.2-1.1-0.5v-7.2c0.3-0.3,0.7-0.5,1.1-0.5c0.6,0,0.9,0.5,0.9,1.6V38.1z"/>
		<path class="st0" d="M37.8,38.1c0,0.2,0,0.4,0,0.5c0,0.1,0,0.2,0,0.2c-0.1,0.6-0.4,0.8-1,0.8c-0.7,0-1.1-0.5-1.1-1.6v-2.1H40v-2.4
			c0-1.2-0.2-2.2-0.7-2.8c-0.6-0.8-1.4-1.2-2.5-1.2s-1.9,0.4-2.6,1.2c-0.4,0.6-0.6,1.5-0.6,2.8v4.1c0,1.3,0.2,2.2,0.7,2.8
			c0.6,0.8,1.5,1.2,2.6,1.2c1.1,0,2-0.4,2.6-1.3c0.3-0.4,0.4-0.8,0.5-1.3c0-0.3,0.1-0.8,0.1-1.4v-0.3v0h-2.2L37.8,38.1L37.8,38.1
			L37.8,38.1z M35.8,33.1c0-1.1,0.4-1.6,1.1-1.6c0.7,0,1.1,0.5,1.1,1.6v1.1h-2.1V33.1z"/>
		<path class="st0" d="M24.5,17.5c0.7,0,1-0.5,1-1.6v-5c0-1.1-0.3-1.7-1-1.7c-0.7,0-1,0.6-1,1.7v5C23.5,17,23.8,17.5,24.5,17.5z"/>
	</g>
</g>
</svg>
